<svg width="24" height="25" viewBox="0 0 24 25" fill="none" xmlns="http://www.w3.org/2000/svg">
<mask id="mask0_336_4365" style="mask-type:alpha" maskUnits="userSpaceOnUse" x="0" y="0" width="24" height="25">
<rect y="0.956543" width="24" height="24" fill="#DDDEE3"/>
</mask>
<g mask="url(#mask0_336_4365)">
<path d="M15.775 13.9315L14.65 12.8065C14.8 11.9732 14.5627 11.2275 13.938 10.5695C13.3127 9.91088 12.55 9.65654 11.65 9.80654L10.525 8.68154C10.7583 8.58154 10.9917 8.50654 11.225 8.45654C11.4583 8.40654 11.7167 8.38154 12 8.38154C13.1333 8.38154 14.0957 8.77754 14.887 9.56954C15.679 10.3609 16.075 11.3232 16.075 12.4565C16.075 12.7399 16.05 13.0022 16 13.2435C15.95 13.4855 15.875 13.7149 15.775 13.9315ZM18.95 17.0315L17.85 16.0065C18.4833 15.5232 19.046 14.9939 19.538 14.4185C20.0293 13.8439 20.45 13.1899 20.8 12.4565C19.9667 10.7732 18.7707 9.43554 17.212 8.44354C15.654 7.45221 13.9167 6.95654 12 6.95654C11.5167 6.95654 11.0417 6.98988 10.575 7.05654C10.1083 7.12321 9.65001 7.22321 9.20001 7.35654L8.02501 6.18154C8.65835 5.93154 9.30435 5.74821 9.96301 5.63154C10.621 5.51488 11.3 5.45654 12 5.45654C14.2167 5.45654 16.2373 6.04388 18.062 7.21854C19.8873 8.39388 21.2667 9.93988 22.2 11.8565C22.2333 11.9232 22.2583 12.0105 22.275 12.1185C22.2917 12.2272 22.3 12.3399 22.3 12.4565C22.3 12.5732 22.2917 12.6855 22.275 12.7935C22.2583 12.9022 22.2333 12.9899 22.2 13.0565C21.8167 13.8399 21.354 14.5649 20.812 15.2315C20.2707 15.8982 19.65 16.4982 18.95 17.0315ZM19.225 22.3065L15.725 18.8065C15.2083 19.0065 14.6377 19.1649 14.013 19.2815C13.3877 19.3982 12.7167 19.4565 12 19.4565C9.76668 19.4565 7.74168 18.8692 5.92501 17.6945C4.10835 16.5192 2.73335 14.9732 1.80001 13.0565C1.76668 12.9899 1.74168 12.9022 1.72501 12.7935C1.70835 12.6855 1.70001 12.5732 1.70001 12.4565C1.70001 12.3399 1.70835 12.2315 1.72501 12.1315C1.74168 12.0315 1.76668 11.9399 1.80001 11.8565C2.18335 11.0899 2.64168 10.3815 3.17501 9.73154C3.70835 9.08154 4.28335 8.50654 4.90001 8.00654L2.65001 5.73154C2.50001 5.58154 2.42501 5.40654 2.42501 5.20654C2.42501 5.00654 2.50001 4.82321 2.65001 4.65654C2.80001 4.52321 2.97935 4.45654 3.18801 4.45654C3.39601 4.45654 3.56668 4.52321 3.70001 4.65654L20.3 21.2565C20.4333 21.3899 20.5043 21.5565 20.513 21.7565C20.521 21.9565 20.45 22.1399 20.3 22.3065C20.15 22.4399 19.971 22.5065 19.763 22.5065C19.5543 22.5065 19.375 22.4399 19.225 22.3065ZM5.95001 9.05654C5.41668 9.47321 4.90435 9.97754 4.41301 10.5695C3.92101 11.1609 3.51668 11.7899 3.20001 12.4565C4.03335 14.1399 5.22901 15.4772 6.78701 16.4685C8.34568 17.4605 10.0833 17.9565 12 17.9565C12.45 17.9565 12.9 17.9189 13.35 17.8435C13.8 17.7689 14.1833 17.6899 14.5 17.6065L13.25 16.3065C13.0667 16.3732 12.8667 16.4272 12.65 16.4685C12.4333 16.5105 12.2167 16.5315 12 16.5315C10.8667 16.5315 9.90435 16.1355 9.11301 15.3435C8.32101 14.5522 7.92501 13.5899 7.92501 12.4565C7.92501 12.2565 7.94601 12.0439 7.98801 11.8185C8.02935 11.5939 8.08335 11.3899 8.15001 11.2065L5.95001 9.05654Z" fill="#9497A0"/>
</g>
</svg>
