<svg width="42" height="25" viewBox="0 0 42 25" fill="none" xmlns="http://www.w3.org/2000/svg">
<g clip-path="url(#clip0_1696_431)">
<mask id="mask0_1696_431" style="mask-type:alpha" maskUnits="userSpaceOnUse" x="0" y="1" width="24" height="24">
<rect y="1" width="24" height="24" fill="#DDDEE3"/>
</mask>
<g mask="url(#mask0_1696_431)">
<path d="M15.775 13.975L14.65 12.85C14.8 12.0167 14.5627 11.271 13.938 10.613C13.3127 9.95433 12.55 9.7 11.65 9.85L10.525 8.725C10.7583 8.625 10.9917 8.55 11.225 8.5C11.4583 8.45 11.7167 8.425 12 8.425C13.1333 8.425 14.0957 8.821 14.887 9.613C15.679 10.4043 16.075 11.3667 16.075 12.5C16.075 12.7833 16.05 13.0457 16 13.287C15.95 13.529 15.875 13.7583 15.775 13.975ZM18.95 17.075L17.85 16.05C18.4833 15.5667 19.046 15.0373 19.538 14.462C20.0293 13.8873 20.45 13.2333 20.8 12.5C19.9667 10.8167 18.7707 9.479 17.212 8.487C15.654 7.49567 13.9167 7 12 7C11.5167 7 11.0417 7.03333 10.575 7.1C10.1083 7.16667 9.65 7.26667 9.2 7.4L8.025 6.225C8.65833 5.975 9.30433 5.79167 9.963 5.675C10.621 5.55833 11.3 5.5 12 5.5C14.2167 5.5 16.2373 6.08733 18.062 7.262C19.8873 8.43733 21.2667 9.98333 22.2 11.9C22.2333 11.9667 22.2583 12.054 22.275 12.162C22.2917 12.2707 22.3 12.3833 22.3 12.5C22.3 12.6167 22.2917 12.729 22.275 12.837C22.2583 12.9457 22.2333 13.0333 22.2 13.1C21.8167 13.8833 21.354 14.6083 20.812 15.275C20.2707 15.9417 19.65 16.5417 18.95 17.075ZM19.225 22.35L15.725 18.85C15.2083 19.05 14.6377 19.2083 14.013 19.325C13.3877 19.4417 12.7167 19.5 12 19.5C9.76666 19.5 7.74166 18.9127 5.925 17.738C4.10833 16.5627 2.73333 15.0167 1.8 13.1C1.76666 13.0333 1.74166 12.9457 1.725 12.837C1.70833 12.729 1.7 12.6167 1.7 12.5C1.7 12.3833 1.70833 12.275 1.725 12.175C1.74166 12.075 1.76666 11.9833 1.8 11.9C2.18333 11.1333 2.64166 10.425 3.175 9.775C3.70833 9.125 4.28333 8.55 4.9 8.05L2.65 5.775C2.5 5.625 2.425 5.45 2.425 5.25C2.425 5.05 2.5 4.86667 2.65 4.7C2.8 4.56667 2.97933 4.5 3.188 4.5C3.396 4.5 3.56666 4.56667 3.7 4.7L20.3 21.3C20.4333 21.4333 20.5043 21.6 20.513 21.8C20.521 22 20.45 22.1833 20.3 22.35C20.15 22.4833 19.971 22.55 19.763 22.55C19.5543 22.55 19.375 22.4833 19.225 22.35ZM5.95 9.1C5.41666 9.51667 4.90433 10.021 4.413 10.613C3.921 11.2043 3.51666 11.8333 3.2 12.5C4.03333 14.1833 5.229 15.5207 6.787 16.512C8.34566 17.504 10.0833 18 12 18C12.45 18 12.9 17.9623 13.35 17.887C13.8 17.8123 14.1833 17.7333 14.5 17.65L13.25 16.35C13.0667 16.4167 12.8667 16.4707 12.65 16.512C12.4333 16.554 12.2167 16.575 12 16.575C10.8667 16.575 9.90433 16.179 9.113 15.387C8.321 14.5957 7.925 13.6333 7.925 12.5C7.925 12.3 7.946 12.0873 7.988 11.862C8.02933 11.6373 8.08333 11.4333 8.15 11.25L5.95 9.1Z" fill="#9497A0"/>
</g>
</g>
<defs>
<clipPath id="clip0_1696_431">
<rect width="42" height="24" fill="white" transform="translate(0 0.956543)"/>
</clipPath>
</defs>
</svg>
